<svg width="115" height="82" viewBox="0 0 115 82" fill="none" xmlns="http://www.w3.org/2000/svg">
<path d="M64.4619 37.2923L74.4175 37.2882V37.2676L64.4619 37.2923Z" fill="#B99E76"/>
<path d="M101.44 37.2683V37.2637H100.14V37.2683H89.2766V37.2637H87.9761V37.2683V37.2821L101.44 37.2775V37.2683Z" fill="#B99E76"/>
<path d="M101.44 37.268V37.2637H100.14V37.268H89.2766V37.2637H87.9761V37.268V37.2811V37.2941H101.44V37.2767V37.268Z" fill="#B99E76"/>
<path d="M114.787 0.796759V0.816175H83.8767H62.5732L47.5112 16.737L62.5732 16.7292L115 16.6981V0.777344L114.787 0.796759Z" fill="#B99E76"/>
<path d="M86.4667 21.3699V21.3932H36.0055L55.7513 0.517578H34.8078L22.5268 13.4989L15.062 21.3894L7.53099 29.3498L0 37.3102L19.9443 37.3024L19.9663 37.3257H55.575L73.3004 37.2014L115 81.2787V21.3466L86.4667 21.3661V21.3699ZM89.2073 37.1859H102.271L102.278 51.002L89.2073 37.1859Z" fill="#B99E76"/>
<path d="M64.4619 37.2923L74.4175 37.2882V37.2676L64.4619 37.2923Z" fill="#B99E76"/>
<path d="M101.44 37.2683V37.2637H100.14V37.2683H89.2766V37.2637H87.9761V37.2683V37.2821L101.44 37.2775V37.2683Z" fill="#B99E76"/>
<path d="M101.44 37.268V37.2637H100.14V37.268H89.2766V37.2637H87.9761V37.268V37.2811V37.2941H101.44V37.2767V37.268Z" fill="#B99E76"/>
<path d="M114.787 0.796759V0.816175H83.8767H62.5732L47.5112 16.737L62.5732 16.7292L115 16.6981V0.777344L114.787 0.796759Z" fill="#B99E76"/>
<path d="M86.4667 21.3699V21.3932H36.0055L55.7513 0.517578H34.8078L22.5268 13.4989L15.062 21.3894L7.53099 29.3498L0 37.3102L19.9443 37.3024L19.9663 37.3257H55.575L73.3004 37.2014L115 81.2787V21.3466L86.4667 21.3661V21.3699ZM89.2073 37.1859H102.271L102.278 51.002L89.2073 37.1859Z" fill="#B99E76"/>
</svg>
