<svg width="228" height="228" viewBox="0 0 228 228" fill="none" xmlns="http://www.w3.org/2000/svg">
<g clip-path="url(#clip0_57_365)">
<path d="M135.332 135.314C130.851 145.258 123.36 153.544 114.008 158.989C106.314 163.487 97.3856 166.04 87.8313 166.04C80.2386 166.04 73.0179 164.417 66.5075 161.475C48.8025 153.544 36.3734 136.008 35.7816 115.512C35.7816 115.005 35.7646 114.498 35.7646 114.007C35.7646 113.517 35.7646 112.993 35.7816 112.502C36.3565 92.0072 48.8025 74.4713 66.4906 66.5234C63.5651 73.0339 61.9417 80.2377 61.9417 87.8304C61.9417 97.3677 64.5121 106.313 68.9933 114.007C74.4384 123.359 82.7244 130.867 92.6677 135.331C99.1781 138.257 106.382 139.897 113.991 139.897C121.601 139.897 128.822 138.274 135.315 135.331L135.332 135.314Z" fill="url(#paint0_linear_57_365)"/>
<path d="M192.235 114.008C192.235 114.515 192.235 115.023 192.218 115.513C191.644 136.008 179.198 153.544 161.526 161.492C164.452 154.982 166.075 147.761 166.075 140.168C166.075 130.631 163.505 121.685 159.024 113.991C153.579 104.623 145.293 97.1316 135.349 92.6673C128.839 89.7419 121.635 88.1185 114.025 88.1185C106.416 88.1185 99.2121 89.7419 92.7017 92.6673C97.166 82.7241 104.674 74.455 114.009 68.993C121.703 64.4949 130.631 61.9414 140.186 61.9414C147.795 61.9414 155.016 63.5648 161.526 66.5072C179.198 74.455 191.644 91.9909 192.218 112.486C192.218 112.993 192.235 113.501 192.235 113.991V114.008Z" fill="url(#paint1_linear_57_365)"/>
<path d="M161.509 66.5085C154.999 63.583 147.778 61.9427 140.169 61.9427C130.631 61.9427 121.686 64.5131 113.992 68.9943C104.64 74.4394 97.149 82.7254 92.6847 92.6686C89.7593 99.1791 88.119 106.4 88.119 113.992C88.119 121.585 89.7424 128.806 92.6678 135.299C82.7246 130.835 74.4555 123.327 68.9935 113.992C64.4953 106.298 61.9419 97.3528 61.9419 87.8154C61.9419 80.2227 63.5653 73.002 66.4908 66.5085C74.4386 48.8203 91.9914 36.3744 112.487 35.7825C112.994 35.7825 113.501 35.7656 113.992 35.7656C114.482 35.7656 115.006 35.7656 115.497 35.7825C135.992 36.3575 153.545 48.8034 161.493 66.5085H161.509Z" fill="url(#paint2_linear_57_365)"/>
<path d="M166.058 140.17C166.058 147.763 164.435 154.984 161.509 161.494C153.561 179.182 136.008 191.628 115.513 192.203C115.006 192.203 114.499 192.22 114.008 192.22C113.518 192.22 112.994 192.22 112.503 192.203C92.008 191.628 74.4551 179.182 66.5073 161.494C73.0178 164.42 80.2215 166.06 87.8312 166.06C97.3685 166.06 106.314 163.489 114.008 159.008C123.36 153.563 130.868 145.277 135.332 135.334C138.258 128.823 139.881 121.62 139.881 114.027C139.881 106.434 138.258 99.1967 135.332 92.7031C145.275 97.1674 153.561 104.676 159.006 114.027C163.505 121.721 166.058 130.667 166.058 140.204V140.17Z" fill="url(#paint3_linear_57_365)"/>
</g>
<defs>
<linearGradient id="paint0_linear_57_365" x1="52.1338" y1="95.5922" x2="104.15" y2="155.877" gradientUnits="userSpaceOnUse">
<stop stop-color="#D6BD98"/>
<stop offset="1" stop-color="#B99E76"/>
</linearGradient>
<linearGradient id="paint1_linear_57_365" x1="177.168" y1="126.792" x2="136.99" y2="88.964" gradientUnits="userSpaceOnUse">
<stop stop-color="#D6BD98"/>
<stop offset="1" stop-color="#B99E76"/>
</linearGradient>
<linearGradient id="paint2_linear_57_365" x1="61.9419" y1="85.5494" x2="161.509" y2="85.5494" gradientUnits="userSpaceOnUse">
<stop/>
<stop offset="1" stop-color="#656565"/>
</linearGradient>
<linearGradient id="paint3_linear_57_365" x1="152.378" y1="98.5203" x2="101.545" y2="182.446" gradientUnits="userSpaceOnUse">
<stop stop-color="#656565"/>
<stop offset="1" stop-color="#202020"/>
</linearGradient>
<clipPath id="clip0_57_365">
<rect width="156.471" height="156.471" fill="white" transform="translate(35.7646 35.7656)"/>
</clipPath>
</defs>
</svg>
