<svg width="238" height="240" viewBox="0 0 238 240" fill="none" xmlns="http://www.w3.org/2000/svg">
<g clip-path="url(#clip0_57_361)">
<path d="M183.079 94.9718C173.661 84.8284 160.306 79.6914 143.379 79.6914H135.304C136.766 84.8165 137.497 90.7958 137.497 97.7242C137.497 98.4005 137.485 99.053 137.473 99.7055H143.391C154.754 99.7055 162.981 102.624 168.569 108.639C174.25 114.76 177.138 124.833 177.138 138.559C177.138 152.285 174.274 162.132 168.616 168.147C163.029 174.091 154.777 176.986 143.402 176.986H130.224C118.837 176.986 110.598 174.091 105.01 168.147C99.4585 162.239 96.5941 152.523 96.4998 139.283H87.7535C83.7104 139.283 79.9973 138.891 76.6025 138.132C76.6025 138.274 76.6025 138.417 76.6025 138.559C76.6025 157.47 81.3058 172.05 90.5589 181.909C99.9654 191.922 113.309 197 130.224 197H143.402C160.306 197 173.649 191.922 183.067 181.909C192.332 172.05 197.024 157.47 197.024 138.559C197.024 119.648 192.344 104.914 183.103 94.9718H183.079Z" fill="url(#paint0_linear_57_361)"/>
<path d="M137.461 99.7072C137.19 112.449 134.314 121.857 128.691 128.405C122.491 135.63 113.144 139.296 100.896 139.296H96.4644C96.4644 139.059 96.4644 138.822 96.4644 138.561C96.4644 131.004 97.3366 124.573 99.0694 119.27C100.496 114.952 102.464 111.381 105.034 108.629C108.264 105.141 112.401 102.709 117.517 101.261C121.23 100.217 125.426 99.6953 130.2 99.6953H137.473L137.461 99.7072Z" fill="url(#paint1_linear_57_361)"/>
<path d="M135.292 79.6918H130.188C124.601 79.6918 119.415 80.2731 114.605 81.3883C104.869 83.6543 96.7944 88.1981 90.4881 94.9841C84.9244 100.975 81.0346 108.687 78.8067 118C77.3569 124.05 76.6142 130.765 76.5789 138.156C69.5182 136.566 63.872 133.328 59.711 128.487C53.8408 121.63 51 111.617 51 97.867C51 84.117 53.8644 73.9379 59.7581 66.9976C65.9701 59.7015 75.3766 56 87.7181 56H100.896C113.262 56 122.668 59.7133 128.833 67.0332C131.721 70.4618 133.866 74.6616 135.292 79.6799V79.6918Z" fill="url(#paint2_linear_57_361)"/>
</g>
<defs>
<linearGradient id="paint0_linear_57_361" x1="104.48" y1="105.898" x2="193.622" y2="194.48" gradientUnits="userSpaceOnUse">
<stop/>
<stop offset="1" stop-color="#656565"/>
</linearGradient>
<linearGradient id="paint1_linear_57_361" x1="74.5514" y1="69.1582" x2="117.72" y2="119.743" gradientUnits="userSpaceOnUse">
<stop stop-color="#D6BD98"/>
<stop offset="1" stop-color="#B99E76"/>
</linearGradient>
<linearGradient id="paint2_linear_57_361" x1="72.0053" y1="71.3279" x2="115.174" y2="121.925" gradientUnits="userSpaceOnUse">
<stop stop-color="#D6BD98"/>
<stop offset="1" stop-color="#B99E76"/>
</linearGradient>
<clipPath id="clip0_57_361">
<rect width="146" height="141" fill="white" transform="translate(51 56)"/>
</clipPath>
</defs>
</svg>
