<svg width="228" height="228" viewBox="0 0 228 228" fill="none" xmlns="http://www.w3.org/2000/svg">
<g clip-path="url(#clip0_57_403)">
<path d="M139.333 63C129.928 63 121.105 65.5087 113.507 69.8884C128.946 78.7895 139.333 95.4152 139.333 114.465H87.6665C87.6665 133.514 98.0539 150.14 113.493 159.027C121.091 163.406 129.913 165.915 139.319 165.915C167.863 165.915 190.986 142.869 190.986 114.45C190.986 86.0322 167.863 63 139.333 63Z" fill="#222222"/>
<path d="M113.493 69.8867C98.0539 78.7878 87.6665 95.4135 87.6665 114.463H139.333C139.333 95.4135 128.946 78.7878 113.507 69.8867H113.493Z" fill="url(#paint0_linear_57_403)"/>
<path d="M113.493 69.8884C128.932 78.7895 139.319 95.4152 139.319 114.465H87.6667C87.6667 133.514 98.0541 150.14 113.493 159.027C105.894 163.406 97.0722 165.915 87.6667 165.915C59.1369 165.929 36 142.883 36 114.465C36 86.0464 59.1369 63 87.6667 63C97.0722 63 105.894 65.5087 113.493 69.8884Z" fill="url(#paint1_linear_57_403)"/>
<path style="mix-blend-mode:multiply" opacity="0.3" d="M87.6665 114.465H139.333L113.535 159.055C113.535 159.055 113.507 159.055 113.507 159.041C98.0681 150.14 87.6807 133.514 87.6807 114.479L87.6665 114.465Z" fill="url(#paint2_linear_57_403)"/>
<path style="mix-blend-mode:multiply" opacity="0.3" d="M87.6669 114.551C87.6669 133.6 98.0543 150.226 113.493 159.113C105.895 163.492 97.0725 166.001 87.6669 166.001C78.2613 166.001 69.4676 163.492 61.8691 159.127L87.6527 114.551H87.6669Z" fill="url(#paint3_linear_57_403)"/>
</g>
<defs>
<linearGradient id="paint0_linear_57_403" x1="61.4988" y1="153.129" x2="143.053" y2="74.6699" gradientUnits="userSpaceOnUse">
<stop stop-color="#FFCF8E"/>
<stop offset="1" stop-color="#24191A"/>
</linearGradient>
<linearGradient id="paint1_linear_57_403" x1="164.391" y1="17.9419" x2="26.3936" y2="188.074" gradientUnits="userSpaceOnUse">
<stop stop-color="#D6C8B3"/>
<stop offset="0.0001" stop-color="#EDD6B3"/>
<stop offset="0.05" stop-color="#F8D29A"/>
<stop offset="0.35" stop-color="#EAC48A"/>
<stop offset="0.61" stop-color="#B99E76"/>
<stop offset="0.84" stop-color="#A38D6D"/>
<stop offset="1" stop-color="#8D7959"/>
</linearGradient>
<linearGradient id="paint2_linear_57_403" x1="113.507" y1="200.272" x2="113.507" y2="115.854" gradientUnits="userSpaceOnUse">
<stop offset="0.49" stop-color="white"/>
<stop offset="0.54" stop-color="#F2F2F2"/>
<stop offset="0.62" stop-color="#D1D1D1"/>
<stop offset="0.73" stop-color="#9B9B9B"/>
<stop offset="0.87" stop-color="#515151"/>
<stop offset="1"/>
</linearGradient>
<linearGradient id="paint3_linear_57_403" x1="71.8866" y1="183.406" x2="102.292" y2="133.678" gradientUnits="userSpaceOnUse">
<stop offset="0.49" stop-color="white"/>
<stop offset="0.54" stop-color="#F2F2F2"/>
<stop offset="0.62" stop-color="#D1D1D1"/>
<stop offset="0.73" stop-color="#9B9B9B"/>
<stop offset="0.87" stop-color="#515151"/>
<stop offset="1"/>
</linearGradient>
<clipPath id="clip0_57_403">
<rect width="155" height="103" fill="white" transform="translate(36 63)"/>
</clipPath>
</defs>
</svg>
