<svg width="150" height="150" viewBox="0 0 150 150" fill="none" xmlns="http://www.w3.org/2000/svg">
<g clip-path="url(#clip0_65_201)">
<path fill-rule="evenodd" clip-rule="evenodd" d="M27 63.5419L39.9707 44L49.6664 51.9794L36.8896 70.0485L27 63.5419Z" fill="#3E3E3F"/>
<path fill-rule="evenodd" clip-rule="evenodd" d="M103.402 51.3418L112.688 45.4727L124 64.5969L114.326 70.0484L103.402 51.3418Z" fill="#3E3E3F"/>
<path fill-rule="evenodd" clip-rule="evenodd" d="M77.245 57.6516L62.2059 64.7957C60.353 65.631 58.2846 65.0155 57.6813 63.3229C56.8625 61.4325 57.4658 59.3442 59.1033 58.7067L74.3363 51.3428C76.5986 50.5075 78.4516 50.0898 81.1233 50.0898C86.2728 50.0898 96.9811 53.0354 101.915 54.5082L110.771 69.8515L105.837 73.2148C104.608 74.4677 103.574 77.8309 100.881 79.5235C95.516 71.9618 85.8419 64.1802 77.2019 57.6736L77.245 57.6516Z" fill="#3E3E3F"/>
<path fill-rule="evenodd" clip-rule="evenodd" d="M49.2568 82.4481C48.0071 80.9753 48.2226 78.8651 49.6662 77.6121L57.8968 70.2482C59.3403 68.9952 61.4087 69.1931 62.8308 70.6659C63.865 72.1386 63.865 74.2489 62.4214 75.5019L53.9754 82.8658C52.7257 84.1188 50.6788 84.1188 49.2353 82.4481H49.2568Z" fill="#B99E76"/>
<path fill-rule="evenodd" clip-rule="evenodd" d="M58.7156 90.2269L69.0146 81.1924C70.4582 80.1372 70.4582 77.8291 69.2085 76.3564C67.9589 74.8836 65.912 74.6857 64.4684 76.1365L55.2036 84.116C52.9413 85.5887 52.7259 88.3145 53.9755 89.7873C55.0097 91.0402 57.2721 91.4579 58.7156 90.2049V90.2269Z" fill="#B99E76"/>
<path fill-rule="evenodd" clip-rule="evenodd" d="M65.3087 96.0955L72.7205 89.5889C73.9486 88.3139 74.358 86.0058 72.9359 84.533C71.6863 83.0603 69.6394 82.8624 68.1958 84.1154C67.9804 84.3352 60.784 90.8418 60.5686 90.8418C59.3404 92.3146 59.3404 94.4029 60.5686 95.6778C61.6028 96.9528 63.6496 97.3705 65.3087 96.0955Z" fill="#B99E76"/>
<path fill-rule="evenodd" clip-rule="evenodd" d="M87.1349 102.404C88.7724 101.569 89.3972 99.4585 88.5784 97.7879L83.429 87.896L84.8725 86.8409L90.6469 97.9857C91.4656 99.8762 93.534 100.294 95.1715 99.4585C97.0245 98.6232 97.4338 96.5129 96.6151 94.8423L90.6469 83.2799L92.0904 82.2247C92.0904 82.2247 96.2057 90.2041 97.4554 92.9299C98.468 94.6005 100.536 95.238 102.196 94.4027C103.855 93.3475 104.458 91.4571 103.639 89.7865C99.1144 80.9718 100.149 82.6424 98.2957 79.6968C92.7368 71.9152 84.7002 66.6836 76.879 59.9571L63.0895 66.6835C59.9869 68.1563 57.1213 66.6836 55.8716 64.1556C54.6435 61.2101 55.8716 58.0667 58.3494 56.7917L61.8614 55.1211H51.1531L39.626 70.8821L47.0378 78.0262C47.4472 77.1909 47.8565 76.7732 48.4814 76.1357L56.7119 68.7718C58.9743 66.8814 62.2708 66.8814 64.3392 69.1895C65.158 70.4424 65.7828 71.7174 65.5673 73.1902C67.6357 72.9704 69.4887 73.6078 70.7168 75.0806C72.3543 76.9711 72.5698 79.499 71.3417 81.5873C72.5913 81.5873 73.604 82.2247 74.4227 83.2579C76.2757 85.3681 76.2757 88.5115 74.4227 90.402C75.6509 90.402 77.0944 90.8196 77.7193 92.0726C77.7193 92.0726 81.4252 98.5792 82.6748 101.107C83.2781 102.162 85.562 103.415 87.1995 102.36L87.1349 102.404Z" fill="#3E3E3F"/>
<path fill-rule="evenodd" clip-rule="evenodd" d="M70.8675 102.627L75.3921 98.4288C77.0296 97.1758 77.0296 94.6479 75.5861 93.395C74.3579 92.142 72.2895 92.142 71.0614 93.1752L66.5367 97.3737C64.8993 98.6267 64.8993 100.737 66.1274 102.21C67.14 103.463 69.2084 103.88 70.8675 102.627Z" fill="#B99E76"/>
<path fill-rule="evenodd" clip-rule="evenodd" d="M79.5077 106.606C81.3607 105.77 81.77 103.66 81.1452 101.77C81.1452 101.77 79.2923 98.6262 78.4735 96.9336C77.8487 99.2417 76.836 100.077 73.7334 102.605L74.9615 105.133C75.5648 106.386 77.8487 107.661 79.4862 106.606H79.5077Z" fill="#B99E76"/>
</g>
<defs>
<clipPath id="clip0_65_201">
<rect width="97" height="63" fill="white" transform="translate(27 44)"/>
</clipPath>
</defs>
</svg>
