<svg width="150" height="150" viewBox="0 0 150 150" fill="none" xmlns="http://www.w3.org/2000/svg">
<g clip-path="url(#clip0_65_151)">
<path fill-rule="evenodd" clip-rule="evenodd" d="M27.8978 32H70.6955C73.3776 32 75.5933 34.2231 75.5933 36.8629V58.7924C75.5933 61.4554 73.3543 63.8869 70.6955 63.8869H66.8938V72.5244C66.8938 73.1959 66.6839 73.6359 66.0076 73.8674C65.7976 74.0759 65.5644 74.0759 65.3545 74.0759C65.1213 74.0759 64.6781 73.8674 64.4682 73.6359L52.8767 63.8869H27.8978C25.0058 63.8869 23 61.4554 23 58.7924V36.8629C23 34.2231 25.0058 32 27.8978 32Z" fill="#B99E76"/>
<path fill-rule="evenodd" clip-rule="evenodd" d="M122.659 98.6433L107.942 92.6689C107.056 91.9973 105.027 91.3489 102.601 91.1174C106.613 88.0144 111.301 82.0399 111.301 70.2994C111.301 60.5504 106.169 55.6875 96.3505 55.6875C86.5315 55.6875 81.4238 60.5504 81.4238 70.2994C81.6337 79.3769 84.3158 87.3428 89.0038 91.3258C86.998 91.5342 85.6686 91.9973 84.759 92.6457L70.0422 98.6202C65.1444 100.38 65.1444 117.423 64.9111 118.975H128C127.557 117.423 127.557 100.38 122.659 98.6202V98.6433Z" fill="#3E3E3F"/>
</g>
<defs>
<clipPath id="clip0_65_151">
<rect width="105" height="87" fill="white" transform="translate(23 32)"/>
</clipPath>
</defs>
</svg>
