<svg width="150" height="150" viewBox="0 0 150 150" fill="none" xmlns="http://www.w3.org/2000/svg">
<g clip-path="url(#clip0_65_190)">
<path fill-rule="evenodd" clip-rule="evenodd" d="M50.2778 33.293V45.9833H112.084V33.293H50.2778Z" fill="#B99E76"/>
<path fill-rule="evenodd" clip-rule="evenodd" d="M67.8403 56.3438V62.3926H107.025V56.3438H67.8403Z" fill="#B99E76"/>
<path fill-rule="evenodd" clip-rule="evenodd" d="M67.8403 70.4023V76.2673H107.025V70.4023H67.8403Z" fill="#B99E76"/>
<path fill-rule="evenodd" clip-rule="evenodd" d="M67.8403 84.4609V90.5302H107.025V84.4609H67.8403Z" fill="#B99E76"/>
<path fill-rule="evenodd" clip-rule="evenodd" d="M67.8403 98.543V104.592H107.025V98.543H67.8403Z" fill="#B99E76"/>
<path fill-rule="evenodd" clip-rule="evenodd" d="M61.9862 53.9939C57.8862 49.8864 51.8484 47.945 45.9941 49.4981C37.4066 51.8482 32.3479 60.8398 34.4897 69.4226C36.8354 78.0259 45.7901 83.2982 54.3777 80.7642C62.9653 78.6185 68.024 69.627 65.8822 61.0441C65.4946 60.0632 65.1071 59.0823 64.7195 58.1218L69.2071 53.6261L65.8822 50.3155L61.9862 54.0143V53.9939Z" fill="#B99E76"/>
<path fill-rule="evenodd" clip-rule="evenodd" d="M48.9108 67.0927L44.8108 62.8013L48.1357 59.4907L52.2357 63.5982L60.4153 55.5876C56.9069 52.0727 51.8277 50.3153 46.5651 51.8888C39.1606 53.8097 34.6934 61.4321 36.6312 68.8501C38.5894 76.2682 46.3815 80.7639 53.786 78.8226C61.1904 76.6769 65.678 69.0545 63.5362 61.6364C63.5362 61.0438 63.3322 60.4716 62.9447 59.879L55.9277 67.1131L52.4193 70.628L48.9108 67.1131V67.0927Z" fill="white"/>
<path fill-rule="evenodd" clip-rule="evenodd" d="M46.3818 29H116V121H46.3818V81.5393C46.9734 81.7437 47.5445 81.7437 48.1361 81.7437V118.67H114.43V30.9618H48.1361V48.5362C47.5445 48.7406 46.953 48.7406 46.3818 48.7406V29Z" fill="#3E3E3F"/>
</g>
<defs>
<clipPath id="clip0_65_190">
<rect width="82" height="92" fill="white" transform="translate(34 29)"/>
</clipPath>
</defs>
</svg>
