<svg width="150" height="150" viewBox="0 0 150 150" fill="none" xmlns="http://www.w3.org/2000/svg">
<g clip-path="url(#clip0_65_180)">
<path fill-rule="evenodd" clip-rule="evenodd" d="M112.967 100.106C109.663 101.386 74.2219 113.972 74.2219 100.832C74.2219 99.7243 85.0559 103.563 91.4718 101.749C96.4278 100.469 95.6979 95.9047 93.1238 95.1789C90.3769 94.6251 74.5677 88.972 67.9597 88.781C64.8286 88.59 56.9527 89.8696 53.0917 90.4234C51.8047 90.6144 51.0747 90.6144 50.8826 91.8749C50.5176 97.528 51.4397 109.216 51.0747 115.423C51.0747 115.595 51.2668 117.257 52.5538 116.149C54.3979 114.697 54.7629 113.227 56.9527 113.59C76.0468 117.963 90.5498 123.082 115.714 107.02C120.497 102.646 116.809 97.8909 112.967 100.087V100.106Z" fill="#3E3E3F"/>
<path fill-rule="evenodd" clip-rule="evenodd" d="M84.1532 40.4023C74.6062 40.4023 67.0762 47.8889 67.0762 57.0179C67.0762 62.862 69.2852 66.3379 71.1101 68.878C73.1271 71.8001 76.0661 79.4776 76.4311 82.5716C76.4311 83.4883 76.7961 85.1307 79.9272 86.2194C80.2922 86.7541 80.6571 87.308 81.2142 87.6708C81.7713 87.8618 82.1363 87.8618 82.5012 87.8618H85.8052C86.1702 87.8618 86.5352 87.8618 86.9002 87.6708C87.6301 87.308 87.9951 86.7541 88.3601 86.2194C91.4912 85.1116 91.8562 83.4692 91.8562 82.5716C92.2211 79.4776 95.1602 71.8001 97.1771 68.878C98.8291 66.3188 101.403 62.862 101.403 57.0179C101.403 47.8889 93.7002 40.4023 84.134 40.4023H84.1532Z" fill="#3E3E3F"/>
<path fill-rule="evenodd" clip-rule="evenodd" d="M84.691 32.5539C84.691 32.191 84.4989 32 84.3261 32C83.9611 32 83.769 32 83.769 32.5539L83.404 34.9221V35.4759L83.2119 36.7555C83.2119 37.3094 83.5769 37.4812 84.134 37.4812C84.691 37.4812 84.8639 37.2903 84.8639 36.7555L85.056 35.4759C85.056 35.2849 85.056 35.113 84.8639 35.113L84.6718 32.5539H84.691Z" fill="#B99E76"/>
<path fill-rule="evenodd" clip-rule="evenodd" d="M76.0661 34.0039C75.874 33.832 75.7011 33.832 75.509 33.832C75.144 33.832 75.144 34.0039 75.144 34.3859L75.7011 36.9451C75.7011 36.9451 75.8932 37.1361 75.8932 37.3079L76.4503 38.5875C76.4503 39.1223 76.8153 39.1223 77.3723 38.9504C77.9294 38.7594 78.1023 38.3965 77.9294 37.8427L77.5644 36.7541C77.3723 36.5631 77.3723 36.3912 77.3723 36.2002L76.0853 34.0039H76.0661Z" fill="#B99E76"/>
<path fill-rule="evenodd" clip-rule="evenodd" d="M68.5359 38.5699L70.5529 40.3842C70.745 40.3842 70.745 40.5752 70.9179 40.5752L71.8399 41.6638C72.032 42.0267 72.032 42.3896 71.6478 42.7524C71.2828 43.1153 70.9179 43.1153 70.5529 42.5614L69.6308 41.6447C69.4388 41.6447 69.4388 41.4728 69.2659 41.2818L67.9788 39.2765C67.6139 39.0855 67.7868 38.9137 67.9788 38.5508H68.5359V38.5699Z" fill="#B99E76"/>
<path fill-rule="evenodd" clip-rule="evenodd" d="M93.7 34.3859C93.8921 34.214 93.7001 33.832 93.508 33.832C93.143 33.832 92.9509 33.832 92.778 34.0039L91.491 36.2002C91.491 36.3912 91.2989 36.3912 91.2989 36.5631L90.7418 37.6517C90.5497 38.2056 90.5497 38.5684 91.1068 38.7403C91.6639 39.1032 92.0288 38.9313 92.2017 38.3774L92.7588 37.2888C92.7588 37.117 92.9509 36.926 92.9509 36.926L93.6808 34.3668L93.7 34.3859Z" fill="#B99E76"/>
<path fill-rule="evenodd" clip-rule="evenodd" d="M101.23 39.6768L99.5782 41.6821C99.5782 41.6821 99.3861 41.8731 99.3861 42.045L98.4641 42.7707C98.0991 43.1336 97.542 43.1336 97.1771 42.7707C96.8121 42.4079 96.8121 42.045 97.1771 41.6821L98.0991 40.7654C98.2912 40.5744 98.4641 40.4025 98.4641 40.4025L100.673 38.9511C100.865 38.7601 101.038 38.7601 101.23 39.1229C101.422 39.3139 101.595 39.4858 101.23 39.6768Z" fill="#B99E76"/>
<path fill-rule="evenodd" clip-rule="evenodd" d="M106.186 47.3347L103.805 48.6143C103.805 48.8053 103.612 48.8053 103.44 48.8053L102.345 49.1681C101.788 49.34 101.423 49.1681 101.058 48.8053C101.058 48.2514 101.058 47.8885 101.615 47.7167L102.902 47.1628C102.902 47.1628 103.267 47.1628 103.459 46.9718L105.841 46.418C106.206 46.418 106.398 46.418 106.398 46.7808C106.398 46.9527 106.398 47.3347 106.206 47.3347H106.186Z" fill="#B99E76"/>
<path fill-rule="evenodd" clip-rule="evenodd" d="M107.646 56.4667C108.011 56.4667 108.011 56.2757 108.011 56.1038C108.011 55.7409 108.011 55.55 107.646 55.55L105.072 54.9961H104.707L103.42 54.8242C102.863 54.8242 102.498 55.1871 102.498 55.7409C102.498 56.1038 102.863 56.6577 103.42 56.6577H105.072L107.646 56.4858V56.4667Z" fill="#B99E76"/>
<path fill-rule="evenodd" clip-rule="evenodd" d="M38.0509 91.148L32 90.7852L32.1921 116.53H37.878C38.973 116.53 39.895 115.804 40.0871 114.524L39.895 92.9815C40.0871 92.0647 39.1651 91.148 38.0509 91.148Z" fill="#3E3E3F"/>
<path fill-rule="evenodd" clip-rule="evenodd" d="M47.425 90.9766L41.374 90.8047L41.5661 116.549L47.2521 116.358C48.347 116.358 49.4611 115.633 49.4611 114.544L49.269 93.001C49.4611 91.8933 48.5391 91.1676 47.425 90.9957V90.9766Z" fill="#3E3E3F"/>
<path fill-rule="evenodd" clip-rule="evenodd" d="M93.7003 66.5117C91.3183 69.7967 90.3963 77.4742 89.4742 78.1999H78.8323C78.1023 77.4742 76.9882 69.7967 74.6062 66.5117C73.1463 64.1435 71.3022 61.4125 71.3022 57.0198C71.3022 50.259 76.9882 44.7969 84.1533 44.7969C91.3183 44.7969 97.0043 50.2781 97.0043 57.0198C97.0043 61.3934 95.1602 64.1435 93.7003 66.5117Z" fill="#B99E76"/>
<path fill-rule="evenodd" clip-rule="evenodd" d="M82.6742 65.402L81.7522 57.5526C81.5601 56.9987 81.5601 56.6358 81.5601 56.1011V52.2623C81.5601 50.6198 82.4821 49.7031 84.1341 49.7031C85.7861 49.7031 86.7081 50.6198 86.7081 52.2623V56.1011C86.7081 56.6549 86.7081 57.0178 86.5161 57.5526L85.594 65.402C85.4019 66.3187 85.0369 66.4906 84.1341 66.4906C83.2313 66.4906 82.8471 66.3187 82.655 65.402H82.6742Z" fill="#FEFEFE"/>
<path fill-rule="evenodd" clip-rule="evenodd" d="M84.1532 67.0664C85.6131 67.0664 86.9001 68.346 86.9001 69.7975C86.9001 71.249 85.6131 72.3567 84.1532 72.3567C82.6933 72.3567 81.4062 71.2681 81.4062 69.7975C81.4062 68.3269 82.6933 67.0664 84.1532 67.0664Z" fill="#FEFEFE"/>
<path fill-rule="evenodd" clip-rule="evenodd" d="M63.4071 45.6953L65.789 46.4211C65.9811 46.5929 66.154 46.5929 66.3461 46.7839L67.441 47.3378C67.9981 47.5288 67.9981 47.8916 67.806 48.4264C67.6139 48.7893 67.0761 49.1521 66.7111 48.7892L65.6162 48.2354C65.4241 48.2354 65.4241 48.0635 65.0591 48.0635L63.0421 46.612C62.6771 46.4401 62.6771 46.2492 62.85 46.0582C63.0421 45.6953 63.215 45.6953 63.4071 45.6953Z" fill="#B99E76"/>
<path fill-rule="evenodd" clip-rule="evenodd" d="M61.371 54.2695C61.0061 54.2695 60.814 54.4605 60.814 54.6324C60.814 54.9953 61.0061 55.1863 61.1789 55.1863L63.5609 55.7401H65.405C65.9621 55.9311 66.327 55.5682 66.327 55.0144C66.327 54.4605 66.1349 54.2886 65.5971 54.0977H63.753L61.371 54.2886V54.2695Z" fill="#B99E76"/>
</g>
<defs>
<clipPath id="clip0_65_180">
<rect width="86" height="86" fill="white" transform="translate(32 32)"/>
</clipPath>
</defs>
</svg>
