<svg width="150" height="150" viewBox="0 0 150 150" fill="none" xmlns="http://www.w3.org/2000/svg">
<g clip-path="url(#clip0_65_162)">
<path fill-rule="evenodd" clip-rule="evenodd" d="M33.1772 29H108.487H110.685V31.1457V77.0435L106.517 81.151V33.1075H35.1678V116.892H106.517V93.6575L110.685 89.7543V119.038V121H108.487H33.1772H31V119.038V31.1457V29H33.1772Z" fill="#3E3E3F"/>
<path fill-rule="evenodd" clip-rule="evenodd" d="M90.2612 103.427L94.2216 102.242L97.9954 101.077L95.4243 98.3387L92.8324 95.8047L91.4431 99.7078L90.2612 103.427Z" fill="#B99E76"/>
<path fill-rule="evenodd" clip-rule="evenodd" d="M113.65 75.1016L93.2261 95.4143L98.3891 100.482L119 80.3739L113.65 75.1016Z" fill="#B99E76"/>
<path fill-rule="evenodd" clip-rule="evenodd" d="M77.7783 106.734V110.454H101.769V106.734H77.7783Z" fill="#B99E76"/>
<path fill-rule="evenodd" clip-rule="evenodd" d="M44.8716 77.8203V81.7439H74.0045V77.8203H44.8716Z" fill="#B99E76"/>
<path fill-rule="evenodd" clip-rule="evenodd" d="M44.8716 68.6445V72.5477H88.685V68.6445H44.8716Z" fill="#B99E76"/>
<path fill-rule="evenodd" clip-rule="evenodd" d="M44.8716 59.6719V63.3707H96.9998V59.6719H44.8716Z" fill="#B99E76"/>
<path fill-rule="evenodd" clip-rule="evenodd" d="M44.8716 50.4766V54.1958H96.9998V50.4766H44.8716Z" fill="#B99E76"/>
<path d="M96.9998 41.3008H44.8716V45.02H96.9998V41.3008Z" fill="#B99E76"/>
</g>
<defs>
<clipPath id="clip0_65_162">
<rect width="88" height="92" fill="white" transform="translate(31 29)"/>
</clipPath>
</defs>
</svg>
